<?xml version="1.0" encoding="UTF-8" standalone="no"?>
<svg
   xmlns:dc="http://purl.org/dc/elements/1.1/"
   xmlns:cc="http://creativecommons.org/ns#"
   xmlns:rdf="http://www.w3.org/1999/02/22-rdf-syntax-ns#"
   xmlns:svg="http://www.w3.org/2000/svg"
   xmlns="http://www.w3.org/2000/svg"
   version="1.1"
   preserveAspectRatio="xMidYMid meet"
   viewBox="0 0 1600 1600"
   width="1600"
   height="1600"
   id="svg6">
  <metadata
     id="metadata12">
    <rdf:RDF>
      <cc:Work
         rdf:about="">
        <dc:format>image/svg+xml</dc:format>
        <dc:type
           rdf:resource="http://purl.org/dc/dcmitype/StillImage" />
        <dc:title></dc:title>
      </cc:Work>
    </rdf:RDF>
  </metadata>
  <defs
     id="defs10" />
  <path
     id="background"
     d="M 118.73127,121.34481 H 1481.2687 V 1478.6552 H 118.73127 Z"
     style="fill:#26262c;stroke:none;stroke-width:9.98107338" />
  <path
     id="plot"
     d="M 1480.0187,1481.7037 V 1433.26 l -65.0017,-1.2452 V 1182.8464 H 1315.0141 V 983.60858 h -100.0027 v 124.52382 h -100.0027 v 273.9519 H 1015.0059 V 933.79888 H 915.00318 V 734.56001 H 815.00042 V 859.0848 H 714.99767 V 1333.018 H 614.99491 V 684.75131 H 514.99217 V 485.51246 H 414.98941 V 610.03623 H 314.98666 V 836.42288 H 214.9839 v 395.30192 l -95.00261,0.2133 1.30004,243.5908"
     style="fill:#4aaed9;stroke:none;stroke-width:9.98107338" />
  <path
     id="grid"
     d="M 262.4852,111.28332 V 1481.0459 M 337.48726,111.28332 V 1481.0459 M 387.48865,111.28332 V 1481.0459 M 412.48933,115.86567 V 1481.0459 M 562.49346,111.28332 V 1481.0459 M 712.49759,111.28332 V 1481.0459 M 787.49966,111.28332 V 1481.0459 M 862.50172,111.28332 V 1481.0459 M 837.50103,111.28332 V 1481.0459 M 1037.5065,111.28332 V 1481.0459 M 1187.5106,118.95409 V 1488.7167 M 1262.5128,111.28332 V 1481.0459 M 1312.5141,116.36433 V 1486.1269 M 1337.5148,111.28332 V 1481.0459"
     style="fill:none;stroke:#495865;stroke-width:19.96214676" />
  <path
     id="border"
     d="m 1462.5182,115.11921 c 13.8004,0 25.0007,11.1573 25.0007,24.90435 0,268.97144 0,1050.98144 0,1319.95284 0,13.7471 -11.2003,24.9044 -25.0007,24.9044 -270.0074,0 -1055.029,0 -1325.03643,0 -13.80038,0 -25.00068,-11.1573 -25.00068,-24.9044 0,-268.9714 0,-1050.9814 0,-1319.95284 0,-13.74705 11.2003,-24.90435 25.00068,-24.90435 270.00743,0 1055.02903,0 1325.03643,0 z"
     style="fill:none;stroke:#495865;stroke-width:19.96214676" />
</svg>
